<svg width="19" height="17" viewBox="0 0 19 17" fill="none" xmlns="http://www.w3.org/2000/svg">
<path d="M9.74219 7.125C6.92969 7.125 2.99219 11.4492 2.99219 14.1914C2.99219 15.4219 3.90625 16.125 5.48828 16.125C7.21094 16.125 8.33594 15.2461 9.74219 15.2461C11.1133 15.2461 12.2383 16.125 13.9609 16.125C15.543 16.125 16.4922 15.4219 16.4922 14.1914C16.4922 11.4492 12.5195 7.125 9.74219 7.125ZM4.53906 6.70312C4.1875 5.47266 3.0625 4.69922 2.04297 4.94531C1.02344 5.19141 0.460938 6.35156 0.847656 7.58203C1.19922 8.8125 2.32422 9.58594 3.34375 9.33984C4.36328 9.09375 4.92578 7.93359 4.53906 6.70312ZM7.52734 5.96484C8.61719 5.68359 9.14453 4.20703 8.75781 2.69531C8.33594 1.14844 7.10547 0.164062 6.01562 0.445312C4.92578 0.726562 4.39844 2.20312 4.78516 3.71484C5.20703 5.26172 6.4375 6.24609 7.52734 5.96484ZM17.4062 4.94531C16.3867 4.69922 15.2617 5.47266 14.9102 6.70312C14.5234 7.93359 15.0859 9.09375 16.1055 9.33984C17.125 9.58594 18.25 8.8125 18.6016 7.58203C18.9883 6.35156 18.4258 5.19141 17.4062 4.94531ZM11.9219 5.96484C13.0117 6.24609 14.2422 5.26172 14.6641 3.71484C15.0508 2.20312 14.5234 0.726562 13.4336 0.445312C12.3438 0.164062 11.1133 1.14844 10.6914 2.69531C10.3047 4.20703 10.832 5.68359 11.9219 5.96484Z" fill="#FFDA47"/>
</svg>
