<svg width="36" height="34" viewBox="0 0 36 34" fill="none" xmlns="http://www.w3.org/2000/svg">
<path d="M13.3459 20.1444C13.7016 17.1118 15.5177 14.5067 18.2045 13.1764C20.8907 11.8467 24.0132 12.0064 26.5574 13.6034L32.6878 17.4524C33.7051 18.0906 34.4775 19.0277 34.9227 20.1605C35.3679 21.2939 35.4429 22.5177 35.1397 23.6992C34.8366 24.8806 34.1833 25.9087 33.2521 26.6723C32.3203 27.4359 31.1967 27.8629 30.0038 27.9076L29.9238 27.9104C26.9322 28.0444 24.1083 29.4548 22.1642 31.7891C21.6631 32.3907 21.0563 32.8698 20.3756 33.207C20.0054 33.3902 19.6128 33.5316 19.2028 33.6283C18.0395 33.9019 16.8471 33.788 15.7531 33.298C14.6603 32.808 13.7688 31.9883 13.1765 30.9276C12.5842 29.8669 12.3465 28.6654 12.4885 27.4525L13.3459 20.1444Z" fill="#DCC5C5"/>
<path d="M29.6544 12.2662C28.4049 12.3756 27.194 11.8961 26.2445 10.9164C25.3403 9.98433 24.7807 8.701 24.6685 7.30235C24.5568 5.90369 24.9043 4.54211 25.647 3.46767C26.427 2.33851 27.5444 1.65772 28.7927 1.55004C31.3023 1.33233 33.5382 3.55887 33.7774 6.51505C33.965 8.86929 32.8295 10.9852 31.0914 11.8578C30.6476 12.0808 30.1646 12.2226 29.6544 12.2662Z" fill="#DCC5C5"/>
<path d="M20.363 10.319C17.7847 11.4766 14.5318 10.2 13.1109 7.47339C11.69 4.74575 12.6308 1.58523 15.2091 0.427083C17.7863 -0.730545 21.0397 0.546591 22.4607 3.27422C23.8816 6.00083 22.9407 9.16136 20.363 10.319Z" fill="#DCC5C5"/>
<path d="M12.5968 15.5983V15.5989C12.248 15.9383 11.8564 16.2099 11.4347 16.4147C9.46639 17.3698 6.85485 16.8632 5.05772 15.01C4.02352 13.9429 3.40289 12.5852 3.31092 11.1868C3.21432 9.72349 3.70077 8.39069 4.68118 7.43447C5.66159 6.47825 7.00293 6.02741 8.45879 6.16493C9.84987 6.29664 11.1854 6.95694 12.2196 8.02399C14.4014 10.2747 14.5709 13.6725 12.5968 15.5983Z" fill="#DCC5C5"/>
<path d="M0.741291 19.5129L0.741891 19.5116C1.97971 16.9658 5.15865 16.1264 7.82941 17.6401C10.4984 19.1563 11.6656 22.4606 10.4313 25.0058C9.98122 25.9345 9.27253 26.6366 8.42438 27.0799C6.94594 27.8532 5.04312 27.8416 3.34382 26.8793C0.674253 25.363 -0.492934 22.0587 0.741291 19.5129Z" fill="#DCC5C5"/>
</svg>
