<svg width="46" height="45" viewBox="0 0 46 45" fill="none" xmlns="http://www.w3.org/2000/svg">
<path d="M14.9809 26.023C15.4788 21.9073 18.0213 18.3718 21.7828 16.5664C25.5436 14.7618 29.9159 14.9785 33.477 17.1459L42.0597 22.3695C43.4836 23.2357 44.5656 24.5074 45.1885 26.0448C45.8114 27.5829 45.9164 29.2438 45.4927 30.8473C45.0678 32.4507 44.1537 33.8459 42.8493 34.8822C41.545 35.9186 39.9724 36.4981 38.3019 36.5587L38.19 36.5626C34.0017 36.7444 30.0483 38.6585 27.3265 41.8265C26.6249 42.643 25.7762 43.2932 24.8225 43.7508C24.3041 43.9994 23.7544 44.1913 23.1805 44.3225C21.5518 44.6939 19.8825 44.5393 18.3509 43.8743C16.8209 43.2093 15.5728 42.0969 14.7436 40.6574C13.9144 39.2179 13.5816 37.5872 13.7805 35.9411L14.9809 26.023Z" fill="#DCC5C5"/>
<path d="M37.174 15.3321C35.508 15.4728 33.8935 14.8562 32.6274 13.5966C31.4218 12.3982 30.6758 10.7483 30.5261 8.94999C30.3772 7.15173 30.8405 5.40112 31.8307 4.0197C32.8708 2.56792 34.3606 1.69262 36.0251 1.55418C39.3713 1.27426 42.3524 4.13696 42.6713 7.93776C42.9215 10.9646 41.4077 13.6851 39.0901 14.807C38.4983 15.0938 37.8543 15.2761 37.174 15.3321Z" fill="#DCC5C5"/>
<path d="M23.9001 14.7414C20.5852 16.3952 16.4031 14.5714 14.5762 10.6763C12.7493 6.77964 13.959 2.26461 17.2739 0.610119C20.5874 -1.04364 24.7703 0.780843 26.5978 4.67746C28.424 8.57261 27.2144 13.0876 23.9001 14.7414Z" fill="#DCC5C5"/>
<path d="M13.4796 22.9058V22.9066C13.0311 23.343 12.5277 23.6921 11.9855 23.9555C9.45479 25.1834 6.09711 24.5321 3.78651 22.1494C2.45682 20.7775 1.65886 19.0318 1.54062 17.2339C1.41642 15.3524 2.04185 13.6388 3.30238 12.4094C4.56291 11.18 6.28749 10.6003 8.15931 10.7771C9.94785 10.9465 11.665 11.7954 12.9947 13.1674C15.7998 16.0612 16.0177 20.4298 13.4796 22.9058Z" fill="#DCC5C5"/>
<path d="M0.562557 27.5641L0.563242 27.5626C1.97789 24.6531 5.61096 23.6938 8.66326 25.4237C11.7135 27.1566 13.0474 30.9329 11.6369 33.8417C11.1225 34.903 10.3125 35.7055 9.34323 36.2121C7.65358 37.0959 5.47894 37.0826 3.53687 35.9828C0.485942 34.25 -0.847986 30.4736 0.562557 27.5641Z" fill="#DCC5C5"/>
</svg>
