<svg width="36" height="34" viewBox="0 0 36 34" fill="none" xmlns="http://www.w3.org/2000/svg">
<path d="M21.9768 20.1446C21.621 17.1119 19.805 14.5068 17.1182 13.1765C14.432 11.8468 11.3095 12.0065 8.76525 13.6036L2.63489 17.4525C1.61755 18.0907 0.845172 19.0278 0.399979 20.1606C-0.0452147 21.294 -0.120159 22.5178 0.182975 23.6993C0.486109 24.8808 1.13936 25.9088 2.07057 26.6724C3.00235 27.436 4.12596 27.863 5.31892 27.9077L5.3989 27.9106C8.39053 28.0445 11.2144 29.4549 13.1585 31.7893C13.6596 32.3909 14.2664 32.87 14.9471 33.2071C15.3173 33.3903 15.7099 33.5317 16.1199 33.6284C17.2832 33.902 18.4756 33.7881 19.5696 33.2981C20.6624 32.8082 21.5539 31.9885 22.1462 30.9278C22.7385 29.8671 22.9762 28.6656 22.8341 27.4526L21.9768 20.1446Z" fill="#DCC5C5"/>
<path d="M5.66837 12.2659C6.91781 12.3753 8.1287 11.8958 9.07825 10.9161C9.98245 9.98402 10.542 8.7007 10.6542 7.30204C10.7659 5.90339 10.4184 4.5418 9.67576 3.46737C8.89571 2.3382 7.77836 1.65741 6.53005 1.54973C4.02041 1.33202 1.78457 3.55857 1.54534 6.51475C1.3577 8.86898 2.49319 10.9849 4.23129 11.8575C4.67517 12.0805 5.15817 12.2223 5.66837 12.2659Z" fill="#DCC5C5"/>
<path d="M14.9597 10.3191C17.538 11.4767 20.7909 10.2001 22.2118 7.47351C23.6327 4.74587 22.6919 1.58535 20.1136 0.427206C17.5364 -0.730423 14.283 0.546713 12.862 3.27435C11.4411 6.00096 12.382 9.16148 14.9597 10.3191Z" fill="#DCC5C5"/>
<path d="M22.7259 15.5984V15.599C23.0747 15.9384 23.4662 16.21 23.8879 16.4148C25.8562 17.3698 28.4678 16.8633 30.2649 15.01C31.2991 13.943 31.9197 12.5852 32.0117 11.1869C32.1083 9.72355 31.6219 8.39076 30.6415 7.43453C29.661 6.47831 28.3197 6.02747 26.8638 6.16499C25.4728 6.2967 24.1372 6.957 23.103 8.02405C20.9212 10.2748 20.7518 13.6726 22.7259 15.5984Z" fill="#DCC5C5"/>
<path d="M34.5814 19.5129L34.5808 19.5116C33.343 16.9658 30.164 16.1264 27.4933 17.6401C24.8243 19.1563 23.6571 22.4606 24.8914 25.0058C25.3415 25.9345 26.0502 26.6366 26.8983 27.0799C28.3768 27.8532 30.2796 27.8416 31.9789 26.8793C34.6484 25.363 35.8156 22.0587 34.5814 19.5129Z" fill="#DCC5C5"/>
</svg>
