<svg width="39" height="39" viewBox="0 0 39 39" fill="none" xmlns="http://www.w3.org/2000/svg">
<path d="M26.3719 22.8027C25.945 19.3368 23.7656 16.3596 20.5418 14.8393C17.318 13.3196 13.5706 13.5021 10.518 15.3273L3.16147 19.7261C1.94099 20.4555 1.01353 21.5264 0.479634 22.821C-0.0543312 24.1163 -0.144265 25.515 0.218893 26.8652C0.583058 28.2155 1.36656 29.3904 2.48462 30.2631C3.60262 31.1358 4.95055 31.6238 6.38224 31.6749L6.47828 31.6781C10.068 31.8312 13.4569 33.4431 15.7897 36.1109C16.3915 36.7985 17.1191 37.346 17.9362 37.7313C18.3805 37.9407 18.8518 38.1023 19.3434 38.2128C20.7393 38.5255 22.1707 38.3954 23.4832 37.8354C24.7949 37.2754 25.8642 36.3386 26.575 35.1264C27.2858 33.9141 27.5712 32.541 27.4008 31.1548L26.3719 22.8027Z" fill="#DCC5C5"/>
<path d="M7.88343 13.7992C9.34098 13.9242 10.7539 13.3762 11.8618 12.2565C12.9164 11.1913 13.5694 9.72467 13.7005 8.12621C13.8308 6.52775 13.4254 4.97165 12.559 3.74372C11.6488 2.45325 10.3449 1.6752 8.88899 1.55214C5.96113 1.30332 3.35245 3.84795 3.07348 7.22644C2.85449 9.91699 4.17904 12.3352 6.20676 13.3325C6.72449 13.5873 7.28819 13.7494 7.88343 13.7992Z" fill="#DCC5C5"/>
<path d="M18.4039 13.2673C21.3501 14.7557 25.068 13.1143 26.6918 9.60865C28.3158 6.10169 27.2402 2.03815 24.294 0.549108C21.3481 -0.939273 17.6302 0.70276 16.0061 4.20972C14.3824 7.71536 15.4581 11.7789 18.4039 13.2673Z" fill="#DCC5C5"/>
<path d="M27.4967 18.4844C27.895 18.8723 28.3431 19.1833 28.8251 19.4174C31.0746 20.5089 34.059 19.93 36.1127 17.812C37.2952 16.5925 38.0043 15.0408 38.1095 13.4427C38.2199 11.7703 37.6638 10.2471 36.5436 9.15427C35.4232 8.06145 33.8898 7.5462 32.2259 7.70336C30.6364 7.85389 29.1101 8.60852 27.9283 9.828C25.4347 12.4003 25.2411 16.2835 27.4967 18.4844Z" fill="#DCC5C5"/>
<path d="M37.631 24.1186L37.6305 24.1173C36.3927 21.5714 33.2137 20.7321 30.5432 22.2457C27.8738 23.762 26.7067 27.0663 27.9412 29.6115C28.3912 30.5401 29.0998 31.2423 29.9481 31.6855C31.4264 32.4589 33.3295 32.4472 35.0289 31.4849C37.6981 29.9687 38.8654 26.6644 37.631 24.1186Z" fill="#DCC5C5"/>
</svg>
